<mxfile host="app.diagrams.net" modified="2023-08-28T04:48:30.031Z" agent="Mozilla/5.0 (Windows NT 10.0; Win64; x64) AppleWebKit/537.36 (KHTML, like Gecko) Chrome/116.0.0.0 Safari/537.36 Edg/116.0.1938.62" etag="s94Imx2l1mLn2uFMuRJm" version="21.6.9" type="github">
  <diagram id="kWV1w4FAC4IXIcKnAsgC" name="第 1 页">
    <mxGraphModel dx="1754" dy="865" grid="1" gridSize="10" guides="1" tooltips="1" connect="1" arrows="1" fold="1" page="1" pageScale="1" pageWidth="827" pageHeight="1169" math="0" shadow="0">
      <root>
        <mxCell id="0" />
        <mxCell id="1" parent="0" />
        <mxCell id="hsqiQFNtVwB-LhybfyuJ-1" value="" style="endArrow=none;dashed=1;rounded=0;html=1;strokeColor=#666666;" parent="1" edge="1">
          <mxGeometry width="50" height="50" relative="1" as="geometry">
            <mxPoint x="40" y="40" as="sourcePoint" />
            <mxPoint x="790" y="40" as="targetPoint" />
          </mxGeometry>
        </mxCell>
        <mxCell id="hsqiQFNtVwB-LhybfyuJ-2" value="" style="endArrow=none;dashed=1;html=1;rounded=0;strokeColor=#666666;" parent="1" edge="1">
          <mxGeometry width="50" height="50" relative="1" as="geometry">
            <mxPoint x="40" y="1130" as="sourcePoint" />
            <mxPoint x="790" y="1130" as="targetPoint" />
          </mxGeometry>
        </mxCell>
        <mxCell id="hsqiQFNtVwB-LhybfyuJ-3" value="" style="endArrow=none;dashed=1;html=1;rounded=0;strokeColor=#666666;" parent="1" edge="1">
          <mxGeometry width="50" height="50" relative="1" as="geometry">
            <mxPoint x="40" y="117" as="sourcePoint" />
            <mxPoint x="40" y="1207" as="targetPoint" />
          </mxGeometry>
        </mxCell>
        <mxCell id="hsqiQFNtVwB-LhybfyuJ-4" value="" style="endArrow=none;dashed=1;html=1;rounded=0;strokeColor=#666666;" parent="1" edge="1">
          <mxGeometry width="50" height="50" relative="1" as="geometry">
            <mxPoint x="790" y="40" as="sourcePoint" />
            <mxPoint x="790" y="1130" as="targetPoint" />
          </mxGeometry>
        </mxCell>
        <mxCell id="hsqiQFNtVwB-LhybfyuJ-5" value="&lt;span style=&quot;font-size: 48px;&quot;&gt;范启航&lt;/span&gt;" style="text;html=1;strokeColor=none;fillColor=none;align=center;verticalAlign=middle;whiteSpace=wrap;rounded=0;fontFamily=Source Han Sans;fontSize=50;fontStyle=1;spacing=2;fontColor=#13273E;" parent="1" vertex="1">
          <mxGeometry x="308" y="57" width="211" height="60" as="geometry" />
        </mxCell>
        <mxCell id="hsqiQFNtVwB-LhybfyuJ-15" value="" style="endArrow=none;dashed=1;html=1;rounded=0;strokeColor=#666666;" parent="1" edge="1">
          <mxGeometry width="50" height="50" relative="1" as="geometry">
            <mxPoint x="280" y="200" as="sourcePoint" />
            <mxPoint x="280" y="1158.5" as="targetPoint" />
          </mxGeometry>
        </mxCell>
        <mxCell id="hsqiQFNtVwB-LhybfyuJ-16" value="" style="endArrow=none;dashed=1;rounded=0;html=1;strokeColor=#666666;" parent="1" edge="1">
          <mxGeometry width="50" height="50" relative="1" as="geometry">
            <mxPoint x="40" y="169" as="sourcePoint" />
            <mxPoint x="790" y="169" as="targetPoint" />
          </mxGeometry>
        </mxCell>
        <mxCell id="hsqiQFNtVwB-LhybfyuJ-7" value="2205794866@qq.com" style="text;html=1;strokeColor=none;fillColor=none;align=left;verticalAlign=middle;whiteSpace=wrap;rounded=0;fontFamily=Inter;fontSize=13;fontColor=#404964;" parent="1" vertex="1">
          <mxGeometry x="437" y="124" width="170" height="20" as="geometry" />
        </mxCell>
        <mxCell id="hsqiQFNtVwB-LhybfyuJ-9" value="" style="shape=image;aspect=fixed;image=data:image/svg+xml,PD94bWwgdmVyc2lvbj0iMS4wIiBzdGFuZGFsb25lPSJubyI/PjwhRE9DVFlQRSBzdmcgUFVCTElDICItLy9XM0MvL0RURCBTVkcgMS4xLy9FTiIgImh0dHA6Ly93d3cudzMub3JnL0dyYXBoaWNzL1NWRy8xLjEvRFREL3N2ZzExLmR0ZCI+PHN2ZyB0PSIxNjUzMzczOTQ3NzM5IiBjbGFzcz0iaWNvbiIgdmlld0JveD0iMCAwIDEwMjQgMTAyNCIgdmVyc2lvbj0iMS4xIiB4bWxucz0iaHR0cDovL3d3dy53My5vcmcvMjAwMC9zdmciIHAtaWQ9IjcwMjAiIHhtbG5zOnhsaW5rPSJodHRwOi8vd3d3LnczLm9yZy8xOTk5L3hsaW5rIiB3aWR0aD0iMjAwIiBoZWlnaHQ9IjIwMCI+PGRlZnM+PHN0eWxlIHR5cGU9InRleHQvY3NzIj5AZm9udC1mYWNlIHsgZm9udC1mYW1pbHk6IGZlZWRiYWNrLWljb25mb250OyBzcmM6IHVybCgiLy9hdC5hbGljZG4uY29tL3QvZm9udF8xMDMxMTU4X3U2OXc4eWh4ZHUud29mZjI/dD0xNjMwMDMzNzU5OTQ0IikgZm9ybWF0KCJ3b2ZmMiIpLCB1cmwoIi8vYXQuYWxpY2RuLmNvbS90L2ZvbnRfMTAzMTE1OF91Njl3OHloeGR1LndvZmY/dD0xNjMwMDMzNzU5OTQ0IikgZm9ybWF0KCJ3b2ZmIiksIHVybCgiLy9hdC5hbGljZG4uY29tL3QvZm9udF8xMDMxMTU4X3U2OXc4eWh4ZHUudHRmP3Q9MTYzMDAzMzc1OTk0NCIpIGZvcm1hdCgidHJ1ZXR5cGUiKTsgfQo8L3N0eWxlPjwvZGVmcz48cGF0aCBkPSJNODc0LjY2NjY2NyAzNzUuMTg5MzMzVjc0Ni42NjY2NjdhNjQgNjQgMCAwIDEtNjQgNjRIMjEzLjMzMzMzM2E2NCA2NCAwIDAgMS02NC02NFYzNzUuMTg5MzMzbDY0IDU0LjI1MDY2N1Y3NDYuNjY2NjY3aDU5Ny4zMzMzMzRWNDI5LjQ0bDY0LTU0LjI1MDY2N3pNODEwLjY2NjY2NyAyMTMuMzMzMzMzYTY0Ljc4OTMzMyA2NC43ODkzMzMgMCAwIDEgMjIuODI2NjY2IDQuMTgxMzM0IDYzLjYxNiA2My42MTYgMCAwIDEgMjYuNzk0NjY3IDE5LjQxMzMzMyA2NC4zMiA2NC4zMiAwIDAgMSA5LjM0NCAxNS40NjY2NjdjMi43NzMzMzMgNi41NzA2NjcgNC40OCAxMy42OTYgNC45MDY2NjcgMjEuMTg0TDg3NC42NjY2NjcgMjc3LjMzMzMzM3YyMS4zMzMzMzRMNTUzLjUzNiA1NzIuNTg2NjY3YTY0IDY0IDAgMCAxLTc5Ljg5MzMzMyAyLjUzODY2NmwtMy4xNzg2NjctMi41NkwxNDkuMzMzMzMzIDI5OC42NjY2Njd2LTIxLjMzMzMzNGE2My43ODY2NjcgNjMuNzg2NjY3IDAgMCAxIDM1LjEzNi01Ny4xMzA2NjZBNjMuODcyIDYzLjg3MiAwIDAgMSAyMTMuMzMzMzMzIDIxMy4zMzMzMzNoNTk3LjMzMzMzNHogbS05LjYgNjRoLTU3OC4xMzMzMzRMNTEyIDUyMy44ODI2NjcgODAxLjA2NjY2NyAyNzcuMzMzMzMzeiIgcC1pZD0iNzAyMSIgZmlsbD0iIzRENEQ0RCI+PC9wYXRoPjwvc3ZnPg==;" parent="1" vertex="1">
          <mxGeometry x="416" y="126" width="18" height="18" as="geometry" />
        </mxCell>
        <mxCell id="hsqiQFNtVwB-LhybfyuJ-8" value="(+86) 173-7112-2176" style="text;html=1;strokeColor=none;fillColor=none;align=left;verticalAlign=middle;whiteSpace=wrap;rounded=0;fontFamily=Inter;fontSize=13;fontColor=#404964;fontStyle=0" parent="1" vertex="1">
          <mxGeometry x="268" y="125" width="142" height="20" as="geometry" />
        </mxCell>
        <mxCell id="hsqiQFNtVwB-LhybfyuJ-18" value="教育" style="text;html=1;strokeColor=none;fillColor=none;align=left;verticalAlign=middle;whiteSpace=wrap;rounded=0;fontFamily=Source Han Sans;fontSize=21;fontColor=#13273E;fontStyle=1" parent="1" vertex="1">
          <mxGeometry x="60" y="189" width="50" height="30" as="geometry" />
        </mxCell>
        <mxCell id="hsqiQFNtVwB-LhybfyuJ-20" value="" style="endArrow=none;html=1;rounded=0;fontFamily=宋体-简;fontSize=16;fontColor=#2B4259;strokeColor=#404964;" parent="1" edge="1">
          <mxGeometry width="50" height="50" relative="1" as="geometry">
            <mxPoint x="61" y="221" as="sourcePoint" />
            <mxPoint x="261" y="221" as="targetPoint" />
          </mxGeometry>
        </mxCell>
        <mxCell id="hsqiQFNtVwB-LhybfyuJ-27" value="证书" style="text;html=1;strokeColor=none;fillColor=none;align=left;verticalAlign=middle;whiteSpace=wrap;rounded=0;fontFamily=Source Han Sans;fontSize=21;fontColor=#13273E;fontStyle=1" parent="1" vertex="1">
          <mxGeometry x="57" y="595" width="50" height="30" as="geometry" />
        </mxCell>
        <mxCell id="hsqiQFNtVwB-LhybfyuJ-29" value="" style="endArrow=none;html=1;rounded=0;fontFamily=宋体-简;fontSize=16;fontColor=#2B4259;strokeColor=#404964;" parent="1" edge="1">
          <mxGeometry width="50" height="50" relative="1" as="geometry">
            <mxPoint x="58" y="627" as="sourcePoint" />
            <mxPoint x="258" y="627" as="targetPoint" />
          </mxGeometry>
        </mxCell>
        <mxCell id="hsqiQFNtVwB-LhybfyuJ-23" value="个人主页" style="text;html=1;strokeColor=none;fillColor=none;align=left;verticalAlign=middle;whiteSpace=wrap;rounded=0;fontFamily=Source Han Sans;fontSize=21;fontColor=#13273E;fontStyle=1" parent="1" vertex="1">
          <mxGeometry x="56" y="410" width="89" height="30" as="geometry" />
        </mxCell>
        <mxCell id="hsqiQFNtVwB-LhybfyuJ-25" value="" style="endArrow=none;html=1;rounded=0;fontFamily=宋体-简;fontSize=16;fontColor=#2B4259;strokeColor=#404964;" parent="1" edge="1">
          <mxGeometry width="50" height="50" relative="1" as="geometry">
            <mxPoint x="57" y="442" as="sourcePoint" />
            <mxPoint x="257" y="442" as="targetPoint" />
          </mxGeometry>
        </mxCell>
        <mxCell id="hsqiQFNtVwB-LhybfyuJ-31" value="&lt;span style=&quot;font-size: 15px;&quot;&gt;华中科技大学&lt;/span&gt;" style="text;html=1;strokeColor=none;fillColor=none;align=left;verticalAlign=middle;whiteSpace=wrap;rounded=0;fontFamily=Source Han Sans;fontSize=15;fontColor=#404964;fontStyle=1" parent="1" vertex="1">
          <mxGeometry x="60" y="239" width="120" height="30" as="geometry" />
        </mxCell>
        <mxCell id="hsqiQFNtVwB-LhybfyuJ-33" value="本科&amp;nbsp; &amp;nbsp; 网络空间安全" style="text;html=1;strokeColor=none;fillColor=none;align=left;verticalAlign=middle;whiteSpace=wrap;rounded=0;fontFamily=Source Han Sans;fontSize=12;fontColor=#6D7684;fontStyle=0" parent="1" vertex="1">
          <mxGeometry x="60" y="270" width="199" height="23" as="geometry" />
        </mxCell>
        <mxCell id="hsqiQFNtVwB-LhybfyuJ-35" value="2020 - 2024" style="text;html=1;strokeColor=none;fillColor=none;align=right;verticalAlign=middle;whiteSpace=wrap;rounded=0;fontFamily=Source Han Sans;fontSize=15;fontColor=#6D7684;fontStyle=0" parent="1" vertex="1">
          <mxGeometry x="170" y="244" width="92" height="20" as="geometry" />
        </mxCell>
        <mxCell id="hsqiQFNtVwB-LhybfyuJ-38" value="成绩&amp;nbsp; &amp;nbsp; 89.3 / 100.0" style="text;html=1;strokeColor=none;fillColor=none;align=left;verticalAlign=middle;whiteSpace=wrap;rounded=0;fontFamily=Source Han Sans;fontSize=12;fontColor=#6D7684;fontStyle=0" parent="1" vertex="1">
          <mxGeometry x="60" y="293" width="199" height="23" as="geometry" />
        </mxCell>
        <mxCell id="hsqiQFNtVwB-LhybfyuJ-39" value="排名&amp;nbsp; &amp;nbsp; 35 / 135&amp;nbsp;" style="text;html=1;strokeColor=none;fillColor=none;align=left;verticalAlign=middle;whiteSpace=wrap;rounded=0;fontFamily=Source Han Sans;fontSize=12;fontColor=#6D7684;fontStyle=0" parent="1" vertex="1">
          <mxGeometry x="60" y="316" width="199" height="23" as="geometry" />
        </mxCell>
        <mxCell id="hsqiQFNtVwB-LhybfyuJ-40" value="Github" style="text;html=1;strokeColor=none;fillColor=none;align=left;verticalAlign=middle;whiteSpace=wrap;rounded=0;fontFamily=Source Han Sans;fontSize=15;fontColor=#404964;fontStyle=1" parent="1" vertex="1">
          <mxGeometry x="55" y="455" width="119" height="30" as="geometry" />
        </mxCell>
        <mxCell id="hsqiQFNtVwB-LhybfyuJ-41" value="&lt;span style=&quot;font-size: 15px;&quot;&gt;博客&lt;/span&gt;" style="text;html=1;strokeColor=none;fillColor=none;align=left;verticalAlign=middle;whiteSpace=wrap;rounded=0;fontFamily=Source Han Sans;fontSize=15;fontColor=#404964;fontStyle=1" parent="1" vertex="1">
          <mxGeometry x="55" y="514" width="120" height="30" as="geometry" />
        </mxCell>
        <mxCell id="hsqiQFNtVwB-LhybfyuJ-42" value="&lt;a href=&quot;https://github.com/Icathian-Rain&quot;&gt;https://github.com/Icathian-Rain&lt;/a&gt;" style="text;html=1;strokeColor=none;fillColor=none;align=left;verticalAlign=middle;whiteSpace=wrap;rounded=0;fontFamily=Source Han Sans;fontSize=12;fontColor=#6D7684;fontStyle=0" parent="1" vertex="1">
          <mxGeometry x="55" y="485" width="200" height="23" as="geometry" />
        </mxCell>
        <mxCell id="csp5jKro6aII4pgKmo1C-4" value="项目" style="text;html=1;strokeColor=none;fillColor=none;align=left;verticalAlign=middle;whiteSpace=wrap;rounded=0;fontFamily=Source Han Sans;fontSize=21;fontColor=#13273E;fontStyle=1" parent="1" vertex="1">
          <mxGeometry x="303" y="189" width="50" height="30" as="geometry" />
        </mxCell>
        <mxCell id="csp5jKro6aII4pgKmo1C-6" value="" style="endArrow=none;html=1;rounded=0;fontFamily=宋体-简;fontSize=16;fontColor=#2B4259;strokeColor=#404964;" parent="1" edge="1">
          <mxGeometry width="50" height="50" relative="1" as="geometry">
            <mxPoint x="303" y="221" as="sourcePoint" />
            <mxPoint x="769" y="221" as="targetPoint" />
          </mxGeometry>
        </mxCell>
        <mxCell id="csp5jKro6aII4pgKmo1C-7" value="竞赛" style="text;html=1;strokeColor=none;fillColor=none;align=left;verticalAlign=middle;whiteSpace=wrap;rounded=0;fontFamily=Source Han Sans;fontSize=21;fontColor=#13273E;fontStyle=1" parent="1" vertex="1">
          <mxGeometry x="301" y="614" width="50" height="30" as="geometry" />
        </mxCell>
        <mxCell id="csp5jKro6aII4pgKmo1C-9" value="" style="endArrow=none;html=1;rounded=0;fontFamily=宋体-简;fontSize=16;fontColor=#2B4259;strokeColor=#404964;" parent="1" edge="1">
          <mxGeometry width="50" height="50" relative="1" as="geometry">
            <mxPoint x="301" y="646" as="sourcePoint" />
            <mxPoint x="767" y="646" as="targetPoint" />
          </mxGeometry>
        </mxCell>
        <mxCell id="8V30FOKsPtYKY0wyYov8-1" value="" style="shape=image;aspect=fixed;image=data:image/svg+xml,PD94bWwgdmVyc2lvbj0iMS4wIiBzdGFuZGFsb25lPSJubyI/PjwhRE9DVFlQRSBzdmcgUFVCTElDICItLy9XM0MvL0RURCBTVkcgMS4xLy9FTiIgImh0dHA6Ly93d3cudzMub3JnL0dyYXBoaWNzL1NWRy8xLjEvRFREL3N2ZzExLmR0ZCI+PHN2ZyB0PSIxNjUzNDE1ODM0MTI0IiBjbGFzcz0iaWNvbiIgdmlld0JveD0iMCAwIDEwMjQgMTAyNCIgdmVyc2lvbj0iMS4xIiB4bWxucz0iaHR0cDovL3d3dy53My5vcmcvMjAwMC9zdmciIHAtaWQ9Ijc0NzEiIHhtbG5zOnhsaW5rPSJodHRwOi8vd3d3LnczLm9yZy8xOTk5L3hsaW5rIiB3aWR0aD0iMjAwIiBoZWlnaHQ9IjIwMCI+PGRlZnM+PHN0eWxlIHR5cGU9InRleHQvY3NzIj5AZm9udC1mYWNlIHsgZm9udC1mYW1pbHk6IGZlZWRiYWNrLWljb25mb250OyBzcmM6IHVybCgiLy9hdC5hbGljZG4uY29tL3QvZm9udF8xMDMxMTU4X3U2OXc4eWh4ZHUud29mZjI/dD0xNjMwMDMzNzU5OTQ0IikgZm9ybWF0KCJ3b2ZmMiIpLCB1cmwoIi8vYXQuYWxpY2RuLmNvbS90L2ZvbnRfMTAzMTE1OF91Njl3OHloeGR1LndvZmY/dD0xNjMwMDMzNzU5OTQ0IikgZm9ybWF0KCJ3b2ZmIiksIHVybCgiLy9hdC5hbGljZG4uY29tL3QvZm9udF8xMDMxMTU4X3U2OXc4eWh4ZHUudHRmP3Q9MTYzMDAzMzc1OTk0NCIpIGZvcm1hdCgidHJ1ZXR5cGUiKTsgfQo8L3N0eWxlPjwvZGVmcz48cGF0aCBkPSJNOTQyLjA4IDczOC4zMDRjLTI1LjYtMjMuNTUyLTU1LjI5Ni00Ny4xMDQtNzYuOC02MS40NC0yNy42NDgtMTkuNDU2LTU3LjM0NC0zOC45MTItODQuOTkyLTUxLjItNDMuMDA4LTIxLjUwNC01OS4zOTItMjUuNi03MC42NTYtMjUuNi0xOS40NTYgMC0zNS44NCAxMC4yNC01MS4yIDI5LjY5Ni04LjE5MiAxMi4yODgtMTcuNDA4IDI5LjY5Ni0yMy41NTIgNDUuMDU2LTQuMDk2IDEwLjI0LTEyLjI4OCAyNy42NDgtMTcuNDA4IDMzLjc5Mi04LjE5Mi0yLjA0OC0zMS43NDQtMTIuMjg4LTcwLjY1Ni0zNy44ODgtMzUuODQtMjUuNi03NC43NTItNTcuMzQ0LTEwNC40NDgtODQuOTkyLTI5LjY5Ni0yOS42OTYtNTkuMzkyLTY4LjYwOC04NC45OTItMTA0LjQ0OC0yNS42LTM3Ljg4OC0zNS44NC02MS40NC0zNy44ODgtNzAuNjU2IDYuMTQ0LTQuMDk2IDIzLjU1Mi0xMi4yODggMzMuNzkyLTE3LjQwOCAxNS4zNi02LjE0NCAzMS43NDQtMTIuMjg4IDQ1LjA1Ni0yMy41NTIgMjEuNTA0LTE1LjM2IDI5LjY5Ni0zMS43NDQgMjkuNjk2LTUxLjIgMC0xMC4yNC0yLjA0OC0yNy42NDgtMjUuNi03MC42NTYtMTIuMjg4LTI1LjYtMzEuNzQ0LTU1LjI5Ni01MS4yLTg0Ljk5Mi0xNS4zNi0yMS41MDQtMzguOTEyLTUxLjItNjEuNDQtNzYuOC0yNy42NDgtMjcuNjQ4LTQ3LjEwNC00MC45Ni02Ni41Ni00MC45Ni00Ny4xMDQgMC0xMDAuMzUyIDY4LjYwOC0xMTQuNjg4IDg3LjA0LTE5LjQ1NiAyNS42LTY2LjU2IDk2LjI1Ni02Ni41NiAxNTkuNzQ0IDAgNTkuMzkyIDQwLjk2IDEzOC4yNCA3NC43NTIgMTk0LjU2IDQ1LjA1NiA3Mi43MDQgMTA4LjU0NCAxNTMuNiAxNzcuMTUyIDIyNC4yNTZsMjEuNTA0IDIxLjUwNCAwIDBjNzAuNjU2IDY4LjYwOCAxNDkuNTA0IDEzMi4wOTYgMjI0LjI1NiAxNzcuMTUyIDIzLjU1MiAxNS4zNiA1MS4yIDI5LjY5NiA3OC44NDggNDMuMDA4bDAgMGM0LjA5NiAyLjA0OCA2LjE0NCAyLjA0OCAxMC4yNCAyLjA0OCAxNS4zNiAwIDI3LjY0OC0xMi4yODggMjcuNjQ4LTI3LjY0OCAwLTEwLjI0LTYuMTQ0LTIxLjUwNC0xNy40MDgtMjUuNi0yMS41MDQtMTAuMjQtNDUuMDU2LTIzLjU1Mi03MC42NTYtMzguOTEyLTcwLjY1Ni00My4wMDgtMTQ1LjQwOC0xMDIuNC0yMTIuOTkyLTE2OC45NmwtMjEuNTA0LTIxLjUwNGMtNjYuNTYtNjguNjA4LTEyNS45NTItMTQzLjM2LTE2OC45Ni0yMTIuOTkyLTQzLjAwOC02OC42MDgtNjYuNTYtMTI4LTY2LjU2LTE2My44NCAwLTMxLjc0NCAxOS40NTYtNzguODQ4IDUzLjI0OC0xMjMuOTA0IDE1LjM2LTE5LjQ1NiAyOS42OTYtMzcuODg4IDQ1LjA1Ni01MS4yIDE1LjM2LTEzLjMxMiAyMy41NTItMTcuNDA4IDI3LjY0OC0xNy40MDggMTAuMjQgNC4wOTYgNDMuMDA4IDMxLjc0NCA4Ny4wNCA5OC4zMDQgMTcuNDA4IDI1LjYgMzMuNzkyIDUxLjIgNDUuMDU2IDc0Ljc1MiAxNS4zNiAyNy42NDggMTcuNDA4IDQwLjk2IDE3LjQwOCA0My4wMDggMCAwLTQuMDk2IDQuMDk2LTEwLjI0IDguMTkyLTguMTkyIDQuMDk2LTIxLjUwNCAxMC4yNC0zMS43NDQgMTUuMzYtMTUuMzYgNi4xNDQtMjcuNjQ4IDEyLjI4OC00MC45NiAxOS40NTYtMTkuNDU2IDEyLjI4OC0yNy42NDggMjcuNjQ4LTI3LjY0OCA0NS4wNTYgMCA4LjE5MiAwIDMzLjc5MiA0OS4xNTIgMTA0LjQ0OCAyNS42IDM3Ljg4OCA1OS4zOTIgODAuODk2IDkyLjE2IDExMi42NGwwIDBjMzEuNzQ0IDMxLjc0NCA3NC43NTIgNjYuNTYgMTEyLjY0IDkyLjE2IDcwLjY1NiA0Ny4xMDQgOTYuMjU2IDQ5LjE1MiAxMDQuNDQ4IDQ5LjE1MmwwIDBjMTcuNDA4IDAgMzEuNzQ0LTguMTkyIDQ1LjA1Ni0yNy42NDggOC4xOTItMTAuMjQgMTIuMjg4LTI1LjYgMTkuNDU2LTQwLjk2IDQuMDk2LTEwLjI0IDEwLjI0LTIzLjU1MiAxNS4zNi0zMS43NDQgNi4xNDQtNC4wOTYgMTAuMjQtNi4xNDQgMTAuMjQtNi4xNDQgMi4wNDggMCAxNS4zNiAyLjA0OCA0My4wMDggMTcuNDA4IDIxLjUwNCAxMi4yODggNDkuMTUyIDI3LjY0OCA3NC43NTIgNDUuMDU2IDYzLjQ4OCA0NS4wNTYgOTQuMjA4IDc2LjggOTguMzA0IDg3LjA0LTIuMDQ4IDQuMDk2LTYuMTQ0IDEyLjI4OC0xNy40MDggMjcuNjQ4LTEyLjI4OCAxNS4zNi0zMS43NDQgMzEuNzQ0LTUxLjIgNDUuMDU2LTI5LjY5NiAyMS41MDQtNjEuNDQgMzguOTEyLTg3LjA0IDQ3LjEwNGwwIDBjLTEwLjI0IDQuMDk2LTE3LjQwOCAxNS4zNi0xNy40MDggMjUuNiAwIDE1LjM2IDEyLjI4OCAyNy42NDggMjcuNjQ4IDI3LjY0OCAyLjA0OCAwIDQuMDk2IDAgNi4xNDQtMi4wNDhsMCAwYzIuMDQ4IDAgMi4wNDggMCA0LjA5Ni0yLjA0OGwwIDBjNDUuMDU2LTE1LjM2IDgyLjk0NC00MC45NiAxMDIuNC01NS4yOTYgMjEuNTA0LTE1LjM2IDg3LjA0LTcwLjY1NiA4Ny4wNC0xMTUuNzEyQzk4Mi4wMTYgNzg1LjQwOCA5NjkuNzI4IDc2NS45NTIgOTQyLjA4IDczOC4zMDR6IiBwLWlkPSI3NDcyIiBmaWxsPSIjMzMzMzMzIj48L3BhdGg+PC9zdmc+;" parent="1" vertex="1">
          <mxGeometry x="250" y="127" width="16" height="16" as="geometry" />
        </mxCell>
        <mxCell id="f_WsF18iGsAuf6Pvj065-1" value="CSP&amp;nbsp; &amp;nbsp; 270 / 500" style="text;html=1;strokeColor=none;fillColor=none;align=left;verticalAlign=middle;whiteSpace=wrap;rounded=0;fontFamily=Source Han Sans;fontSize=12;fontColor=#6D7684;fontStyle=0" parent="1" vertex="1">
          <mxGeometry x="60" y="339" width="199" height="23" as="geometry" />
        </mxCell>
        <mxCell id="AF2Ux_LV5sccvWK5wioI-11" value="第十一届中国软件杯大学生软件设计大赛总决赛一等奖" style="text;html=1;strokeColor=none;fillColor=none;align=left;verticalAlign=middle;whiteSpace=wrap;rounded=0;fontSize=15;fontFamily=Source Han Sans;fontStyle=1;fontColor=#404964;" parent="1" vertex="1">
          <mxGeometry x="301" y="667" width="416" height="20" as="geometry" />
        </mxCell>
        <mxCell id="AF2Ux_LV5sccvWK5wioI-12" value="2022.08" style="text;html=1;strokeColor=none;fillColor=none;align=right;verticalAlign=middle;whiteSpace=wrap;rounded=0;fontFamily=Source Han Sans;fontSize=15;fontColor=#6D7684;fontStyle=0" parent="1" vertex="1">
          <mxGeometry x="640" y="670" width="126" height="14" as="geometry" />
        </mxCell>
        <mxCell id="AF2Ux_LV5sccvWK5wioI-19" value="&lt;p style=&quot;line-height: 1.6;&quot;&gt;我们的项目《高性能民航旅客推荐系统》获第十一届中国软件杯大学生软件设计大赛总决赛A1赛题一等奖（该赛题唯一一等奖），我们的作品以Web服务的方式实现了一个为民航旅客提供行程推荐功能的前后端分离服务，设计了一种行程推荐算法，根据用户需求，在短时间内推荐出行航程，同时使用自研HTTP服务提高效率。在本项目中我主要负责项目规划、前端界面设计、后端接口设计以及自研HTTP服务。&lt;/p&gt;" style="text;html=1;strokeColor=none;fillColor=none;align=left;verticalAlign=middle;whiteSpace=wrap;rounded=0;fontFamily=Source Han Sans;fontSize=12;fontColor=#6D7684;fontStyle=0" parent="1" vertex="1">
          <mxGeometry x="301" y="694.77" width="466" height="112" as="geometry" />
        </mxCell>
        <mxCell id="csp5jKro6aII4pgKmo1C-34" value="基于API HOOK的软件行为分析系统" style="text;html=1;strokeColor=none;fillColor=none;align=left;verticalAlign=middle;whiteSpace=wrap;rounded=0;fontSize=15;fontFamily=Source Han Sans;fontStyle=1;fontColor=#404964;" parent="1" vertex="1">
          <mxGeometry x="303" y="237" width="416" height="20" as="geometry" />
        </mxCell>
        <mxCell id="csp5jKro6aII4pgKmo1C-36" value="2022.09" style="text;html=1;strokeColor=none;fillColor=none;align=right;verticalAlign=middle;whiteSpace=wrap;rounded=0;fontFamily=Source Han Sans;fontSize=15;fontColor=#6D7684;fontStyle=0" parent="1" vertex="1">
          <mxGeometry x="723" y="239" width="46" height="14" as="geometry" />
        </mxCell>
        <mxCell id="csp5jKro6aII4pgKmo1C-37" value="&lt;p style=&quot;line-height: 1.6;&quot;&gt;采用微软的开源工具库Detours实现Windows API截获操作，通过socket发送至桌面端软件，软件使用wails框架作为后端，vue作为前端的B/S架构，能够实现对目标程序对Windows API调用的行为分析，实现实时预警功能。&lt;/p&gt;" style="text;html=1;strokeColor=none;fillColor=none;align=left;verticalAlign=middle;whiteSpace=wrap;rounded=0;fontFamily=Source Han Sans;fontSize=12;fontColor=#6D7684;fontStyle=0" parent="1" vertex="1">
          <mxGeometry x="303" y="264" width="466" height="55" as="geometry" />
        </mxCell>
        <mxCell id="csp5jKro6aII4pgKmo1C-42" value="Mini VPN" style="text;html=1;strokeColor=none;fillColor=none;align=left;verticalAlign=middle;whiteSpace=wrap;rounded=0;fontSize=15;fontFamily=Source Han Sans;fontStyle=1;fontColor=#404964;" parent="1" vertex="1">
          <mxGeometry x="302" y="350" width="416" height="20" as="geometry" />
        </mxCell>
        <mxCell id="csp5jKro6aII4pgKmo1C-43" value="2023.06" style="text;html=1;strokeColor=none;fillColor=none;align=right;verticalAlign=middle;whiteSpace=wrap;rounded=0;fontFamily=Source Han Sans;fontSize=15;fontColor=#6D7684;fontStyle=0" parent="1" vertex="1">
          <mxGeometry x="721" y="353" width="47" height="14" as="geometry" />
        </mxCell>
        <mxCell id="csp5jKro6aII4pgKmo1C-44" value="&lt;p style=&quot;line-height: 1.6;&quot;&gt;使用C/C++实现基于TLS/SSL的VPN，称为Mini VPN, 包含了VPN的所有基本元素，包含对数据的加密，身份认证，多客户端连接等内容。能够保证多用户情况下稳定运行。同时包含一些额外功能，如自定义配置参数、线程安全队列提高效率，用户退出时回收线程资源。&lt;/p&gt;" style="text;html=1;strokeColor=none;fillColor=none;align=left;verticalAlign=middle;whiteSpace=wrap;rounded=0;fontFamily=Source Han Sans;fontSize=12;fontColor=#6D7684;fontStyle=0" parent="1" vertex="1">
          <mxGeometry x="303" y="385" width="466" height="75" as="geometry" />
        </mxCell>
        <mxCell id="AF2Ux_LV5sccvWK5wioI-1" value="ROS加密话题通讯" style="text;html=1;strokeColor=none;fillColor=none;align=left;verticalAlign=middle;whiteSpace=wrap;rounded=0;fontSize=15;fontFamily=Source Han Sans;fontStyle=1;fontColor=#404964;" parent="1" vertex="1">
          <mxGeometry x="301" y="470" width="416" height="20" as="geometry" />
        </mxCell>
        <mxCell id="AF2Ux_LV5sccvWK5wioI-2" value="2023.07" style="text;html=1;strokeColor=none;fillColor=none;align=right;verticalAlign=middle;whiteSpace=wrap;rounded=0;fontFamily=Source Han Sans;fontSize=15;fontColor=#6D7684;fontStyle=0" parent="1" vertex="1">
          <mxGeometry x="717" y="476" width="47" height="14" as="geometry" />
        </mxCell>
        <mxCell id="AF2Ux_LV5sccvWK5wioI-3" value="&lt;p style=&quot;line-height: 1.6;&quot;&gt;在原生ROS的基础上，利用原有的话题，服务等通讯类型，设计出一款基于RSA-AES加密的通讯类，通过该类可以实现话题的发送者与接受者直接的加密通讯，同时可以增加身份验证功能，避免被网络中的攻击者监听或修改，同时防止恶意节点的接入。&lt;/p&gt;" style="text;html=1;strokeColor=none;fillColor=none;align=left;verticalAlign=middle;whiteSpace=wrap;rounded=0;fontFamily=Source Han Sans;fontSize=12;fontColor=#6D7684;fontStyle=0" parent="1" vertex="1">
          <mxGeometry x="301" y="505" width="466" height="55" as="geometry" />
        </mxCell>
        <mxCell id="qrSe2mzieuS3Dk4KjLqL-1" value="第五届中国高校智能机器人创意大赛湖北省二等奖" style="text;html=1;strokeColor=none;fillColor=none;align=left;verticalAlign=middle;whiteSpace=wrap;rounded=0;fontSize=15;fontFamily=Source Han Sans;fontStyle=1;fontColor=#404964;" vertex="1" parent="1">
          <mxGeometry x="300" y="817.77" width="416" height="20" as="geometry" />
        </mxCell>
        <mxCell id="qrSe2mzieuS3Dk4KjLqL-2" value="2022.07" style="text;html=1;strokeColor=none;fillColor=none;align=right;verticalAlign=middle;whiteSpace=wrap;rounded=0;fontFamily=Source Han Sans;fontSize=15;fontColor=#6D7684;fontStyle=0" vertex="1" parent="1">
          <mxGeometry x="639" y="812.77" width="126" height="14" as="geometry" />
        </mxCell>
        <mxCell id="qrSe2mzieuS3Dk4KjLqL-3" value="&lt;p style=&quot;line-height: 1.6;&quot;&gt;我们的项目《智能下象棋平台》获第五届中国高校智能机器人创意大赛湖北省二等奖，作品以ROS平台为主控，arduino控制机械部件，通过摄像头识别棋盘，发送至云平台计算后，由机械臂自动走棋，实现了人机对抗功能，并附带语音播报功能。&lt;/p&gt;" style="text;html=1;strokeColor=none;fillColor=none;align=left;verticalAlign=middle;whiteSpace=wrap;rounded=0;fontFamily=Source Han Sans;fontSize=12;fontColor=#6D7684;fontStyle=0" vertex="1" parent="1">
          <mxGeometry x="300" y="837.77" width="466" height="79.23" as="geometry" />
        </mxCell>
        <mxCell id="qrSe2mzieuS3Dk4KjLqL-4" value="第七届中国国际“互联网+”大学生创新创业大赛湖北省铜奖" style="text;html=1;strokeColor=none;fillColor=none;align=left;verticalAlign=middle;whiteSpace=wrap;rounded=0;fontSize=15;fontFamily=Source Han Sans;fontStyle=1;fontColor=#404964;" vertex="1" parent="1">
          <mxGeometry x="300" y="927" width="416" height="20" as="geometry" />
        </mxCell>
        <mxCell id="qrSe2mzieuS3Dk4KjLqL-5" value="2021.09" style="text;html=1;strokeColor=none;fillColor=none;align=right;verticalAlign=middle;whiteSpace=wrap;rounded=0;fontFamily=Source Han Sans;fontSize=15;fontColor=#6D7684;fontStyle=0" vertex="1" parent="1">
          <mxGeometry x="638" y="930" width="127" height="14" as="geometry" />
        </mxCell>
        <mxCell id="qrSe2mzieuS3Dk4KjLqL-7" value="第十四届蓝桥杯湖北赛区C/C++程序设计大学A组二等奖" style="text;html=1;strokeColor=none;fillColor=none;align=left;verticalAlign=middle;whiteSpace=wrap;rounded=0;fontSize=15;fontFamily=Source Han Sans;fontStyle=1;fontColor=#404964;" vertex="1" parent="1">
          <mxGeometry x="300" y="970" width="416" height="20" as="geometry" />
        </mxCell>
        <mxCell id="qrSe2mzieuS3Dk4KjLqL-8" value="2023.04" style="text;html=1;strokeColor=none;fillColor=none;align=right;verticalAlign=middle;whiteSpace=wrap;rounded=0;fontFamily=Source Han Sans;fontSize=15;fontColor=#6D7684;fontStyle=0" vertex="1" parent="1">
          <mxGeometry x="638" y="970" width="127" height="14" as="geometry" />
        </mxCell>
        <mxCell id="qrSe2mzieuS3Dk4KjLqL-10" value="2023 睿抗机器人开发者大赛编程技能赛省赛二等奖" style="text;html=1;strokeColor=none;fillColor=none;align=left;verticalAlign=middle;whiteSpace=wrap;rounded=0;fontSize=15;fontFamily=Source Han Sans;fontStyle=1;fontColor=#404964;" vertex="1" parent="1">
          <mxGeometry x="300" y="1017" width="416" height="20" as="geometry" />
        </mxCell>
        <mxCell id="qrSe2mzieuS3Dk4KjLqL-11" value="2023.07" style="text;html=1;strokeColor=none;fillColor=none;align=right;verticalAlign=middle;whiteSpace=wrap;rounded=0;fontFamily=Source Han Sans;fontSize=15;fontColor=#6D7684;fontStyle=0" vertex="1" parent="1">
          <mxGeometry x="638" y="1020" width="127" height="14" as="geometry" />
        </mxCell>
        <mxCell id="qrSe2mzieuS3Dk4KjLqL-14" value="四、六级&amp;nbsp; 通过" style="text;html=1;strokeColor=none;fillColor=none;align=left;verticalAlign=middle;whiteSpace=wrap;rounded=0;fontFamily=Source Han Sans;fontSize=12;fontColor=#6D7684;fontStyle=0" vertex="1" parent="1">
          <mxGeometry x="60" y="362" width="199" height="23" as="geometry" />
        </mxCell>
        <mxCell id="qrSe2mzieuS3Dk4KjLqL-15" value="全国计算机技术与软件专业技术资格（水平）考试 软件设计师" style="text;html=1;strokeColor=none;fillColor=none;align=left;verticalAlign=middle;whiteSpace=wrap;rounded=0;fontFamily=Source Han Sans;fontSize=12;fontColor=#6D7684;fontStyle=0" vertex="1" parent="1">
          <mxGeometry x="56" y="647" width="199" height="23" as="geometry" />
        </mxCell>
        <mxCell id="qrSe2mzieuS3Dk4KjLqL-18" value="https://blog.icathianrain.me/" style="text;html=1;strokeColor=none;fillColor=none;align=left;verticalAlign=middle;whiteSpace=wrap;rounded=0;fontFamily=Source Han Sans;fontSize=12;fontColor=#6D7684;fontStyle=0" vertex="1" parent="1">
          <mxGeometry x="58" y="544" width="200" height="23" as="geometry" />
        </mxCell>
        <mxCell id="qrSe2mzieuS3Dk4KjLqL-19" value="证书" style="text;html=1;strokeColor=none;fillColor=none;align=left;verticalAlign=middle;whiteSpace=wrap;rounded=0;fontFamily=Source Han Sans;fontSize=21;fontColor=#13273E;fontStyle=1" vertex="1" parent="1">
          <mxGeometry x="58" y="694.77" width="50" height="30" as="geometry" />
        </mxCell>
        <mxCell id="qrSe2mzieuS3Dk4KjLqL-20" value="" style="endArrow=none;html=1;rounded=0;fontFamily=宋体-简;fontSize=16;fontColor=#2B4259;strokeColor=#404964;" edge="1" parent="1">
          <mxGeometry width="50" height="50" relative="1" as="geometry">
            <mxPoint x="59" y="726.77" as="sourcePoint" />
            <mxPoint x="259" y="726.77" as="targetPoint" />
          </mxGeometry>
        </mxCell>
        <mxCell id="qrSe2mzieuS3Dk4KjLqL-21" value="全国计算机技术与软件专业技术资格（水平）考试 软件设计师" style="text;html=1;strokeColor=none;fillColor=none;align=left;verticalAlign=middle;whiteSpace=wrap;rounded=0;fontFamily=Source Han Sans;fontSize=12;fontColor=#6D7684;fontStyle=0" vertex="1" parent="1">
          <mxGeometry x="57" y="746.77" width="199" height="23" as="geometry" />
        </mxCell>
        <mxCell id="qrSe2mzieuS3Dk4KjLqL-22" value="奖项" style="text;html=1;strokeColor=none;fillColor=none;align=left;verticalAlign=middle;whiteSpace=wrap;rounded=0;fontFamily=Source Han Sans;fontSize=21;fontColor=#13273E;fontStyle=1" vertex="1" parent="1">
          <mxGeometry x="59.5" y="800" width="50" height="30" as="geometry" />
        </mxCell>
        <mxCell id="qrSe2mzieuS3Dk4KjLqL-23" value="" style="endArrow=none;html=1;rounded=0;fontFamily=宋体-简;fontSize=16;fontColor=#2B4259;strokeColor=#404964;" edge="1" parent="1">
          <mxGeometry width="50" height="50" relative="1" as="geometry">
            <mxPoint x="60.5" y="832" as="sourcePoint" />
            <mxPoint x="260.5" y="832" as="targetPoint" />
          </mxGeometry>
        </mxCell>
        <mxCell id="qrSe2mzieuS3Dk4KjLqL-25" value="&lt;span style=&quot;font-size: 15px;&quot;&gt;华中科技大学&lt;/span&gt;" style="text;html=1;strokeColor=none;fillColor=none;align=left;verticalAlign=middle;whiteSpace=wrap;rounded=0;fontFamily=Source Han Sans;fontSize=15;fontColor=#404964;fontStyle=1" vertex="1" parent="1">
          <mxGeometry x="56" y="850" width="120" height="30" as="geometry" />
        </mxCell>
        <mxCell id="qrSe2mzieuS3Dk4KjLqL-26" value="明德奖学金 学业二等奖学金" style="text;html=1;strokeColor=none;fillColor=none;align=left;verticalAlign=middle;whiteSpace=wrap;rounded=0;fontFamily=Source Han Sans;fontSize=12;fontColor=#6D7684;fontStyle=0" vertex="1" parent="1">
          <mxGeometry x="57" y="890" width="199" height="23" as="geometry" />
        </mxCell>
        <mxCell id="qrSe2mzieuS3Dk4KjLqL-27" value="2023" style="text;html=1;strokeColor=none;fillColor=none;align=right;verticalAlign=middle;whiteSpace=wrap;rounded=0;fontFamily=Source Han Sans;fontSize=15;fontColor=#6D7684;fontStyle=0" vertex="1" parent="1">
          <mxGeometry x="221" y="894.5" width="47" height="14" as="geometry" />
        </mxCell>
        <mxCell id="qrSe2mzieuS3Dk4KjLqL-28" value="明德奖学金 科创奖学金" style="text;html=1;strokeColor=none;fillColor=none;align=left;verticalAlign=middle;whiteSpace=wrap;rounded=0;fontFamily=Source Han Sans;fontSize=12;fontColor=#6D7684;fontStyle=0" vertex="1" parent="1">
          <mxGeometry x="55" y="925.5" width="199" height="23" as="geometry" />
        </mxCell>
        <mxCell id="qrSe2mzieuS3Dk4KjLqL-29" value="2023" style="text;html=1;strokeColor=none;fillColor=none;align=right;verticalAlign=middle;whiteSpace=wrap;rounded=0;fontFamily=Source Han Sans;fontSize=15;fontColor=#6D7684;fontStyle=0" vertex="1" parent="1">
          <mxGeometry x="221" y="933" width="47" height="14" as="geometry" />
        </mxCell>
        <mxCell id="qrSe2mzieuS3Dk4KjLqL-30" value="科创奖学金" style="text;html=1;strokeColor=none;fillColor=none;align=left;verticalAlign=middle;whiteSpace=wrap;rounded=0;fontFamily=Source Han Sans;fontSize=12;fontColor=#6D7684;fontStyle=0" vertex="1" parent="1">
          <mxGeometry x="55" y="961" width="199" height="23" as="geometry" />
        </mxCell>
        <mxCell id="qrSe2mzieuS3Dk4KjLqL-31" value="2022" style="text;html=1;strokeColor=none;fillColor=none;align=right;verticalAlign=middle;whiteSpace=wrap;rounded=0;fontFamily=Source Han Sans;fontSize=15;fontColor=#6D7684;fontStyle=0" vertex="1" parent="1">
          <mxGeometry x="219" y="965.5" width="47" height="14" as="geometry" />
        </mxCell>
        <mxCell id="qrSe2mzieuS3Dk4KjLqL-32" value="科创奖学金" style="text;html=1;strokeColor=none;fillColor=none;align=left;verticalAlign=middle;whiteSpace=wrap;rounded=0;fontFamily=Source Han Sans;fontSize=12;fontColor=#6D7684;fontStyle=0" vertex="1" parent="1">
          <mxGeometry x="55" y="997" width="199" height="23" as="geometry" />
        </mxCell>
        <mxCell id="qrSe2mzieuS3Dk4KjLqL-33" value="2021" style="text;html=1;strokeColor=none;fillColor=none;align=right;verticalAlign=middle;whiteSpace=wrap;rounded=0;fontFamily=Source Han Sans;fontSize=15;fontColor=#6D7684;fontStyle=0" vertex="1" parent="1">
          <mxGeometry x="219" y="1001.5" width="47" height="14" as="geometry" />
        </mxCell>
      </root>
    </mxGraphModel>
  </diagram>
</mxfile>
